<mxfile host="app.diagrams.net" modified="2021-06-15T09:11:26.164Z" agent="5.0 (X11; Linux x86_64) AppleWebKit/537.36 (KHTML, like Gecko) Chrome/91.0.4472.101 Safari/537.36" etag="ma3oQM2-nx4jlfmcPi-p" version="14.7.8" type="github">
  <diagram id="fYlAYvfaV4W_IAvT-kaj" name="Page-1">
    <mxGraphModel dx="1350" dy="774" grid="0" gridSize="10" guides="1" tooltips="1" connect="1" arrows="1" fold="1" page="1" pageScale="1" pageWidth="1169" pageHeight="827" math="0" shadow="0">
      <root>
        <mxCell id="0" />
        <mxCell id="1" parent="0" />
        <mxCell id="l-a7HleiP90DHIFPLPGO-1" value="" style="rounded=0;whiteSpace=wrap;html=1;strokeWidth=3;" vertex="1" parent="1">
          <mxGeometry x="400" y="240" width="440" height="360" as="geometry" />
        </mxCell>
        <mxCell id="l-a7HleiP90DHIFPLPGO-2" value="" style="endArrow=classic;html=1;strokeWidth=3;" edge="1" parent="1">
          <mxGeometry width="50" height="50" relative="1" as="geometry">
            <mxPoint x="360" y="200" as="sourcePoint" />
            <mxPoint x="360" y="600" as="targetPoint" />
          </mxGeometry>
        </mxCell>
        <mxCell id="l-a7HleiP90DHIFPLPGO-3" value="" style="endArrow=classic;html=1;strokeWidth=3;" edge="1" parent="1">
          <mxGeometry width="50" height="50" relative="1" as="geometry">
            <mxPoint x="360" y="200" as="sourcePoint" />
            <mxPoint x="840" y="200" as="targetPoint" />
          </mxGeometry>
        </mxCell>
        <mxCell id="l-a7HleiP90DHIFPLPGO-4" value="&lt;font style=&quot;font-size: 20px&quot;&gt;elevation&lt;sub&gt;min&lt;/sub&gt;&lt;/font&gt;" style="text;html=1;strokeColor=none;fillColor=none;align=center;verticalAlign=middle;whiteSpace=wrap;rounded=0;" vertex="1" parent="1">
          <mxGeometry x="230" y="200" width="120" height="20" as="geometry" />
        </mxCell>
        <mxCell id="l-a7HleiP90DHIFPLPGO-5" value="&lt;font style=&quot;font-size: 20px&quot;&gt;elevation&lt;sub&gt;max&lt;/sub&gt;&lt;/font&gt;" style="text;html=1;strokeColor=none;fillColor=none;align=center;verticalAlign=middle;whiteSpace=wrap;rounded=0;" vertex="1" parent="1">
          <mxGeometry x="230" y="560" width="120" height="20" as="geometry" />
        </mxCell>
        <mxCell id="l-a7HleiP90DHIFPLPGO-6" value="&lt;font style=&quot;font-size: 20px&quot;&gt;azimuth&lt;sub&gt;min&lt;/sub&gt;&lt;/font&gt;" style="text;html=1;strokeColor=none;fillColor=none;align=center;verticalAlign=middle;whiteSpace=wrap;rounded=0;" vertex="1" parent="1">
          <mxGeometry x="350" y="160" width="120" height="20" as="geometry" />
        </mxCell>
        <mxCell id="l-a7HleiP90DHIFPLPGO-7" value="&lt;font style=&quot;font-size: 20px&quot;&gt;azimuth&lt;sub&gt;max&lt;/sub&gt;&lt;/font&gt;" style="text;html=1;strokeColor=none;fillColor=none;align=center;verticalAlign=middle;whiteSpace=wrap;rounded=0;" vertex="1" parent="1">
          <mxGeometry x="720" y="160" width="120" height="20" as="geometry" />
        </mxCell>
      </root>
    </mxGraphModel>
  </diagram>
</mxfile>
